<svg xmlns="http://www.w3.org/2000/svg" width="600" height="300" viewBox="0 0 599.99995 300"><defs><clipPath><path d="M0 2384h4787.033V0H0v2384z"/></clipPath><filter id="b" x="-.066" width="1.132" y="-.055" height="1.11" color-interpolation-filters="sRGB"><feGaussianBlur stdDeviation="23.867"/></filter><filter id="a" x="-.109" width="1.217" y="-.134" height="1.268" color-interpolation-filters="sRGB"><feGaussianBlur stdDeviation="37.489"/></filter><filter id="c" x="-.195" width="1.389" y="-.167" height="1.335" color-interpolation-filters="sRGB"><feGaussianBlur stdDeviation="75.46"/></filter></defs><g><path transform="matrix(.154 0 0 -.154 -77.637 336.23)" d="M2009.65 808.345c-7.952 0-14.4 6.447-14.4 14.4v118.54c0 4.498 2.104 8.74 5.685 11.462l464.906 353.5h-297.79v-65.68c0-7.952-6.445-14.4-14.4-14.4h-144c-7.95 0-14.4 6.448-14.4 14.4v224.05c0 7.954 6.45 14.4 14.4 14.4h800.1c7.953 0 14.4-6.446 14.4-14.4v-95.83c0-4.498-2.103-8.738-5.685-11.462l-494.77-376.207h327.654v78.615c0 7.953 6.447 14.4 14.4 14.4h144c7.953 0 14.4-6.447 14.4-14.4V822.745c0-7.953-6.447-14.4-14.4-14.4H2009.65z" filter="url(#a)"/><path transform="matrix(.154 0 0 -.154 -77.637 336.23)" d="M1051.994 808.345c-7.953 0-14.4 6.447-14.4 14.4v143.972c0 7.953 6.447 14.4 14.4 14.4h207.556v325.13h-144.972c-7.953 0-14.4 6.447-14.4 14.4v143.97c0 7.953 6.447 14.4 14.4 14.4h144.972v105.576c0 86.844 34.666 157.872 100.25 205.406 55.858 40.482 133.44 62.777 218.46 62.777.946 0 1.894 0 2.84-.01 84.77-.494 162.433-22.668 218.685-62.437 67.187-47.5 102.7-118.643 102.7-205.74 0-7.952-6.448-14.4-14.4-14.4h-144.088c-7.952 0-14.4 6.448-14.4 14.4 0 38.655-15.458 68.055-45.946 87.386-26.022 16.5-63.505 25.588-105.542 25.588-.717 0-1.446 0-2.163-.01-53.595-.39-143.507-15.59-143.507-112.963v-105.574h258.2c7.952 0 14.4-6.447 14.4-14.4v-143.97c0-7.953-6.448-14.4-14.4-14.4h-258.2v-325.13h351.41c7.954 0 14.4-6.447 14.4-14.4V822.743c0-7.953-6.446-14.4-14.4-14.4h-731.853z" filter="url(#b)"/><path transform="matrix(.154 0 0 -.154 -77.637 336.23)" d="M3040.56 397.124c-7.954 0-14.4 6.447-14.4 14.4v143.972c0 7.953 6.446 14.4 14.4 14.4h153.906l134.116 250.272-260.48 486.078h-91.92c-7.952 0-14.4 6.447-14.4 14.4v143.97c0 7.954 6.448 14.4 14.4 14.4h337.776c7.954 0 14.4-6.446 14.4-14.4v-143.97c0-7.953-6.446-14.4-14.4-14.4h-49.84l162.47-303.185 162.473 303.187h-49.087c-7.953 0-14.4 6.447-14.4 14.4v143.97c0 7.954 6.447 14.4 14.4 14.4h337.775c7.954 0 14.4-6.446 14.4-14.4v-143.97c0-3.82-1.517-7.482-4.217-10.183-2.7-2.7-6.362-4.217-10.182-4.217h-70.87l-505.038-901.76c-2.548-4.547-7.352-7.363-12.564-7.363H3040.56z" filter="url(#c)"/></g></svg>